<?xml version="1.0" encoding="UTF-8" standalone="no"?>
<svg
   xmlns:dc="http://purl.org/dc/elements/1.1/"
   xmlns:cc="http://creativecommons.org/ns#"
   xmlns:rdf="http://www.w3.org/1999/02/22-rdf-syntax-ns#"
   xmlns:svg="http://www.w3.org/2000/svg"
   xmlns="http://www.w3.org/2000/svg"
   xmlns:sodipodi="http://sodipodi.sourceforge.net/DTD/sodipodi-0.dtd"
   xmlns:inkscape="http://www.inkscape.org/namespaces/inkscape"
   width="210mm"
   height="297mm"
   viewBox="0 0 210 297"
   version="1.1"
   id="svg1527"
   inkscape:version="1.0 (4035a4fb49, 2020-05-01)"
   sodipodi:docname="steam_discord.svg">
  <defs
     id="defs1521">
    <clipPath
       clipPathUnits="userSpaceOnUse"
       id="clipPath891">
      <path
         d="M 0,612 H 792 V 0 H 0 Z"
         id="path889" />
    </clipPath>
    <clipPath
       id="clipPath2156"
       clipPathUnits="userSpaceOnUse">
      <path
         id="path2154"
         d="M 0,612 H 792 V 0 H 0 Z" />
    </clipPath>
  </defs>
  <sodipodi:namedview
     id="base"
     pagecolor="#ffffff"
     bordercolor="#666666"
     borderopacity="1.0"
     inkscape:pageopacity="0.0"
     inkscape:pageshadow="2"
     inkscape:zoom="0.49497475"
     inkscape:cx="722.76471"
     inkscape:cy="498.22172"
     inkscape:document-units="mm"
     inkscape:current-layer="layer1"
     inkscape:document-rotation="0"
     showgrid="false"
     showguides="true"
     inkscape:guide-bbox="true"
     inkscape:snap-global="false"
     inkscape:window-width="1920"
     inkscape:window-height="1017"
     inkscape:window-x="-8"
     inkscape:window-y="-8"
     inkscape:window-maximized="1" />
  <metadata
     id="metadata1524">
    <rdf:RDF>
      <cc:Work
         rdf:about="">
        <dc:format>image/svg+xml</dc:format>
        <dc:type
           rdf:resource="http://purl.org/dc/dcmitype/StillImage" />
        <dc:title />
      </cc:Work>
    </rdf:RDF>
  </metadata>
  <g
     inkscape:label="Layer 1"
     inkscape:groupmode="layer"
     id="layer1">
    <g
       inkscape:export-ydpi="96"
       inkscape:export-xdpi="96"
       inkscape:export-filename="steam.png"
       id="g3075"
       transform="matrix(1.4769849,0,0,1.4769849,-103.78438,-48.407406)">
      <path
         id="path2210"
         style="fill:#231f20;fill-opacity:1;fill-rule:nonzero;stroke:none;stroke-width:0.352778"
         d="m 103.97028,85.492017 c -8.197497,0 -14.913327,6.321072 -15.551855,14.354175 l 8.364361,3.458278 c 0.70873,-0.48471 1.564922,-0.76835 2.486025,-0.76835 0.08255,0 0.164747,0.002 0.246239,0.007 l 3.71969,-5.391505 c 0,-0.02575 -3.5e-4,-0.0508 -3.5e-4,-0.0762 0,-3.245203 2.63983,-5.885391 5.88539,-5.885391 3.2452,0 5.88504,2.640188 5.88504,5.885391 0,3.245205 -2.63984,5.885745 -5.88504,5.885745 -0.0448,0 -0.0893,-0.001 -0.13371,-0.002 l -5.30507,3.78531 c 0.003,0.0691 0.005,0.13899 0.005,0.20884 0,2.43629 -1.98155,4.41784 -4.417479,4.41784 -2.138186,0 -3.926064,-1.52647 -4.331053,-3.54718 l -5.9817,-2.47333 c 1.852083,6.55073 7.870119,11.35274 15.014222,11.35274 8.61907,0 15.60583,-6.98711 15.60583,-15.60547 0,-8.619069 -6.98676,-15.605833 -15.60583,-15.605833" />
      <path
         id="path2214"
         style="fill:#231f20;fill-opacity:1;fill-rule:nonzero;stroke:none;stroke-width:0.352778"
         d="m 98.198126,109.17134 -1.916994,-0.79199 c 0.339725,0.70732 0.927452,1.29928 1.707797,1.6249 1.686983,0.70273 3.631851,-0.0977 4.334931,-1.78576 0.34043,-0.81668 0.34255,-1.71803 0.005,-2.53647 -0.3369,-0.8188 -0.97261,-1.45733 -1.78999,-1.79811 -0.81104,-0.33761 -1.679931,-0.32491 -2.443342,-0.037 l 1.980142,0.81879 c 1.24425,0.51859 1.83268,1.94734 1.3141,3.19158 -0.51788,1.24425 -1.947337,1.83268 -3.191584,1.3141" />
      <path
         id="path2218"
         style="fill:#231f20;fill-opacity:1;fill-rule:nonzero;stroke:none;stroke-width:0.352778"
         d="m 106.18025,97.068631 c 0,-1.627011 1.31904,-2.945694 2.94605,-2.945694 1.62701,0 2.94604,1.318683 2.94604,2.945694 0,1.627011 -1.31903,2.945699 -2.94604,2.945699 -1.62701,0 -2.94605,-1.318688 -2.94605,-2.945699 m 6.86082,0.0067 c 0,-2.162175 -1.75895,-3.921478 -3.92148,-3.921478 -2.16217,0 -3.92147,1.759303 -3.92147,3.921478 0,2.162528 1.7593,3.921129 3.92147,3.921129 2.16253,0 3.92148,-1.758601 3.92148,-3.921129" />
      <path
         id="path2222"
         style="fill:#231f20;fill-opacity:1;fill-rule:nonzero;stroke:none;stroke-width:0.352778"
         d="m 136.24267,96.169542 -1.04563,1.837972 c -0.80539,-0.56268 -1.89689,-0.901347 -2.84974,-0.901347 -1.08903,0 -1.76283,0.45085 -1.76283,1.258358 0,0.981075 1.19697,1.209322 2.97603,1.847855 1.91241,0.67627 3.01166,1.47143 3.01166,3.22262 0,2.39642 -1.88453,3.74262 -4.59316,3.74262 -1.3201,0 -2.91254,-0.34078 -4.13667,-1.0855 l 0.7627,-2.03799 c 0.99448,0.52563 2.18405,0.83678 3.2445,0.83678 1.42945,0 2.1089,-0.5274 2.1089,-1.30704 0,-0.89217 -1.0361,-1.16028 -2.70862,-1.71414 -1.90606,-0.63642 -3.22686,-1.47144 -3.22686,-3.409955 0,-2.186164 1.75083,-3.4417 4.27002,-3.4417 1.75542,0 3.16653,0.556331 3.9497,1.151467" />
      <path
         id="path2226"
         style="fill:#231f20;fill-opacity:1;fill-rule:nonzero;stroke:none;stroke-width:0.352778"
         d="m 144.41611,97.331204 v 9.644596 h -2.46168 v -9.644596 h -3.57364 v -2.111728 h 9.59873 v 2.111728 z" />
      <path
         id="path2230"
         style="fill:#231f20;fill-opacity:1;fill-rule:nonzero;stroke:none;stroke-width:0.352778"
         d="m 153.16944,97.324854 v 2.649008 h 4.7117 v 2.111728 h -4.7117 v 2.75943 h 5.46664 v 2.13078 h -7.92797 V 95.219476 h 7.92797 v 2.105378 z" />
      <path
         id="path2234"
         style="fill:#231f20;fill-opacity:1;fill-rule:nonzero;stroke:none;stroke-width:0.352778"
         d="m 166.40517,98.0242 -1.60514,4.70711 h 3.24415 z m -2.27365,6.66926 -0.77823,2.28248 h -2.58092 l 4.40796,-11.756323 h 2.47826 l 4.53249,11.756323 h -2.66841 l -0.79516,-2.28248 z" />
      <path
         id="path2238"
         style="fill:#231f20;fill-opacity:1;fill-rule:nonzero;stroke:none;stroke-width:0.352778"
         d="m 184.82609,99.763607 -3.21698,6.869643 h -1.38924 l -3.16512,-6.80826 v 7.15081 h -2.35797 V 95.219477 h 2.35232 l 3.95147,8.486423 3.81035,-8.486423 h 2.37314 V 106.9758 h -2.35762 z" />
      <path
         id="path2242"
         style="fill:#231f20;fill-opacity:1;fill-rule:nonzero;stroke:none;stroke-width:0.352778"
         d="m 190.03715,96.618946 h 0.28751 c 0.18592,0 0.29563,-0.116769 0.29563,-0.263525 0,-0.148167 -0.0787,-0.243417 -0.29633,-0.243417 h -0.28681 z m 0.30339,-0.752122 c 0.42157,0 0.56303,0.222955 0.56303,0.463903 0,0.220838 -0.13088,0.369005 -0.29033,0.4445 l 0.37782,0.708025 h -0.30939 l -0.31855,-0.627592 h -0.32844 v 0.627592 h -0.25753 v -1.616428 z m -1.38007,0.83573 c 0,0.845256 0.60854,1.376186 1.35714,1.376186 0.74612,0 1.3522,-0.53093 1.3522,-1.376186 0,-0.847725 -0.60608,-1.370541 -1.3522,-1.370541 -0.74648,0 -1.35714,0.529166 -1.35714,1.370541 m 2.98344,0 c 0,1.010356 -0.75706,1.640064 -1.6263,1.640064 -0.87172,0 -1.63089,-0.629708 -1.63089,-1.640064 0,-1.010002 0.75917,-1.635477 1.63089,-1.635477 0.86924,0 1.6263,0.625475 1.6263,1.635477" />
    </g>
    <path
       id="path2"
       d="m 257.02829,100.01501 c -1.50813,0 -2.69875,1.29646 -2.69875,2.91041 0,1.61396 1.21708,2.91042 2.69875,2.91042 1.50812,0 2.69875,-1.29646 2.69875,-2.91042 0,-1.61395 -1.21708,-2.91041 -2.69875,-2.91041 z m -9.65729,0 c -1.50813,0 -2.69875,1.29646 -2.69875,2.91041 0,1.61396 1.21708,2.91042 2.69875,2.91042 1.50812,0 2.69875,-1.29646 2.69875,-2.91042 0.0265,-1.61395 -1.19063,-2.91041 -2.69875,-2.91041 z"
       style="stroke-width:0.264583" />
    <path
       inkscape:export-ydpi="96"
       inkscape:export-xdpi="96"
       inkscape:export-filename="discord.png"
       id="path4"
       d="m 269.88704,78.001673 h -35.45417 c -2.98979,0 -5.42396,2.43417 -5.42396,5.42396 V 118.8798 c 0,2.98979 2.43417,5.42396 5.42396,5.42396 h 30.00375 l -1.40229,-4.84188 3.38667,3.12209 3.20146,2.93687 5.715,4.94771 V 83.425633 c -0.0265,-2.98979 -2.46063,-5.42396 -5.45042,-5.42396 z m -10.21292,34.263547 c 0,0 -0.9525,-1.13771 -1.74625,-2.11667 3.46604,-0.97896 4.78896,-3.12208 4.78896,-3.12208 -1.08479,0.71437 -2.11667,1.21708 -3.04271,1.56104 -1.32291,0.55562 -2.59291,0.89958 -3.83646,1.13771 -2.54,0.47625 -4.86833,0.34395 -6.8527,-0.0265 -1.50813,-0.29104 -2.80459,-0.68792 -3.88938,-1.13771 -0.60854,-0.23813 -1.27,-0.52917 -1.93146,-0.89958 -0.0794,-0.0529 -0.15875,-0.0794 -0.23812,-0.1323 -0.0529,-0.0265 -0.0794,-0.0529 -0.10584,-0.0529 -0.47625,-0.26458 -0.74083,-0.44978 -0.74083,-0.44978 0,0 1.27,2.0902 4.63021,3.09562 -0.79375,1.00542 -1.77271,2.16958 -1.77271,2.16958 -5.84729,-0.1852 -8.06979,-3.9952 -8.06979,-3.9952 0,-8.440207 3.81,-15.292917 3.81,-15.292917 3.81,-2.83104 7.40833,-2.75167 7.40833,-2.75167 l 0.26459,0.3175 c -4.7625,1.34938 -6.93209,3.43959 -6.93209,3.43959 0,0 0.58209,-0.3175 1.56104,-0.74084 2.83105,-1.24354 5.08,-1.56104 6.00605,-1.66687 0.15875,-0.0265 0.29104,-0.0529 0.44979,-0.0529 1.61396,-0.21167 3.43958,-0.26459 5.34458,-0.0529 2.51354,0.29104 5.21229,1.03187 7.96396,2.51354 0,0 -2.09021,-1.98438 -6.58813,-3.33375 l 0.37042,-0.42333 c 0,0 3.62479,-0.0794 7.40833,2.75166 0,0 3.81,6.85271 3.81,15.292917 0,-0.0265 -2.2225,3.78354 -8.06979,3.96875 z m 39.95209,-22.939377 h -8.78417 v 9.86896 l 5.84729,5.265207 v -9.577917 h 3.12208 c 1.98438,0 2.96334,0.9525 2.96334,2.48708 v 7.328957 c 0,1.53459 -0.92604,2.56646 -2.96334,2.56646 h -8.99583 v 5.58271 h 8.78417 c 4.70958,0.0265 9.12812,-2.32833 9.12812,-7.72583 v -7.884587 c 0.0265,-5.50333 -4.39208,-7.91104 -9.10166,-7.91104 z m 46.03749,15.795627 v -8.096247 c 0,-2.91042 5.23875,-3.57188 6.82625,-0.66146 l 4.84188,-1.95792 c -1.905,-4.18042 -5.37105,-5.3975 -8.255,-5.3975 -4.70959,0 -9.36625,2.72521 -9.36625,8.01688 v 8.096247 c 0,5.34458 4.65666,8.01687 9.26041,8.01687 2.96334,0 6.50875,-1.45521 8.46667,-5.26521 l -5.18583,-2.38125 c -1.27,3.25438 -6.58813,2.46063 -6.58813,-0.37041 z m -16.00729,-6.984997 c -1.82562,-0.39688 -3.0427,-1.05834 -3.12208,-2.19605 0.10583,-2.7252 4.3127,-2.83104 6.77333,-0.21166 l 3.88937,-2.98979 c -2.43416,-2.96334 -5.18583,-3.75709 -8.01687,-3.75709 -4.3127,0 -8.49312,2.43417 -8.49312,7.03792 0,4.471457 3.43958,6.879167 7.22312,7.461247 1.93146,0.26458 4.07458,1.03187 4.02167,2.35479 -0.15875,2.51354 -5.34458,2.38125 -7.69937,-0.47625 l -3.75709,3.51896 c 2.19604,2.83104 5.18584,4.25979 7.99042,4.25979 4.3127,0 9.10166,-2.48708 9.28687,-7.03792 0.26458,-5.74145 -3.91583,-7.196657 -8.09625,-7.963947 z M 311.92933,112.82084 H 317.856 V 89.325843 h -5.92667 z m 99.93312,-23.494997 h -8.78417 v 9.86896 l 5.8473,5.265207 v -9.577917 h 3.12208 c 1.98437,0 2.96333,0.9525 2.96333,2.48708 v 7.328957 c 0,1.53459 -0.92604,2.56646 -2.96333,2.56646 h -8.99583 v 5.58271 h 8.81062 c 4.70958,0.0265 9.12813,-2.32833 9.12813,-7.72583 v -7.884587 c 0,-5.50333 -4.41855,-7.91104 -9.12813,-7.91104 z m -43.10062,-0.3175 c -4.86834,0 -9.71021,2.64583 -9.71021,8.06979 v 8.016877 c 0,5.37104 4.86833,8.06979 9.76312,8.06979 4.86834,0 9.71021,-2.69875 9.71021,-8.06979 v -8.016877 c 0,-5.3975 -4.89479,-8.06979 -9.76312,-8.06979 z m 3.81,16.086667 c 0,1.69333 -1.905,2.56646 -3.78355,2.56646 -1.905,0 -3.81,-0.82021 -3.81,-2.56646 v -8.016877 c 0,-1.71979 1.85209,-2.64583 3.70417,-2.64583 1.93146,0 3.88938,0.82021 3.88938,2.64583 z m 27.22562,-8.016877 c -0.13229,-5.50333 -3.88937,-7.72583 -8.73125,-7.72583 h -9.39271 V 112.8473 h 6.00604 v -7.46125 h 1.05834 l 5.45041,7.46125 h 7.40834 l -6.40292,-8.06979 c 2.83104,-0.89959 4.60375,-3.36021 4.60375,-7.699377 z m -8.62542,3.174997 h -3.4925 v -5.371037 h 3.4925 c 3.73063,0 3.73063,5.371037 0,5.371037 z"
       style="stroke-width:0.264583" />
  </g>
</svg>
